<svg width="12" height="10" viewBox="0 0 12 10" fill="none" xmlns="http://www.w3.org/2000/svg">
<path d="M7.90527 6.11663C7.82325 6.00083 7.78224 5.86022 7.78224 5.69479C7.78224 5.44665 7.88476 5.24814 8.0898 5.09926L8.0775 5.09926C8.24153 4.98346 8.40556 4.92556 8.56959 4.92556C8.72542 4.92556 8.85664 5.01654 8.96326 5.19851L11.3376 8.69727L11.3253 8.68487C11.3991 8.80066 11.436 8.92473 11.436 9.05707C11.436 9.27213 11.3294 9.46237 11.1162 9.62779L11.1285 9.62779C11.0382 9.68569 10.9521 9.73118 10.8701 9.76427C10.7881 9.79735 10.7143 9.8139 10.6487 9.8139C10.5831 9.8139 10.5133 9.78908 10.4395 9.73946C10.3739 9.68983 10.3083 9.62779 10.2427 9.55335L7.90527 6.11663Z" fill="url(#paint0_linear_103_780)"/>
<path d="M9.65219 0.223326C9.77521 0.0744432 9.91464 1.73353e-06 10.0705 1.76078e-06C10.2427 1.79089e-06 10.419 0.0785791 10.5995 0.235734C10.6897 0.326718 10.7635 0.417702 10.8209 0.508686C10.8865 0.599671 10.9193 0.690655 10.9193 0.781639C10.9193 0.930523 10.866 1.05873 10.7594 1.16625L9.11089 3.10174L5.89999 6.91067L5.89999 5.78784L5.89999 4.66501L9.65219 0.223326Z" fill="url(#paint1_linear_103_780)"/>
<path d="M4.21111 7.36294e-07C4.4037 7.69968e-07 4.6037 0.0461223 4.81111 0.138365C5.01852 0.230609 5.21852 0.348009 5.41111 0.490567L5.4 0.490567C5.59259 0.649896 5.74074 0.859539 5.84444 1.1195C5.94815 1.37107 6 1.66457 6 2L6 7.97484C6 8.65409 5.8 9.16143 5.4 9.49686C5.20741 9.65619 5.00741 9.78197 4.8 9.87422C4.6 9.95807 4.4037 10 4.21111 10L1.78889 10C1.59629 10 1.39629 9.95807 1.18889 9.87421C0.988887 9.78197 0.792591 9.65619 0.599998 9.49686C0.407406 9.32914 0.259258 9.12369 0.155554 8.8805C0.0518503 8.62893 -1.45595e-06 8.32704 -1.39437e-06 7.97484L-3.49691e-07 2C-2.91043e-07 1.66457 0.0518516 1.37107 0.155555 1.1195C0.259259 0.859539 0.407407 0.649895 0.6 0.490566L0.588889 0.490566C0.781481 0.348009 0.981481 0.230608 1.18889 0.138365C1.3963 0.0461217 1.5963 2.79105e-07 1.78889 3.12779e-07L4.21111 7.36294e-07ZM3.93333 8.72956C4.20741 8.72956 4.4 8.64151 4.51111 8.46541C4.62222 8.28931 4.67778 8.09224 4.67778 7.87421L4.67778 2.11321C4.67778 1.90356 4.62222 1.71069 4.51111 1.53459C4.4 1.35849 4.20741 1.27044 3.93333 1.27044L2.06667 1.27044C1.79259 1.27044 1.6 1.35849 1.48889 1.53459C1.37778 1.71069 1.32222 1.90356 1.32222 2.11321L1.32222 7.87421C1.32222 8.09224 1.37778 8.28931 1.48889 8.46541C1.6 8.64151 1.79259 8.72956 2.06667 8.72956L3.93333 8.72956Z" fill="url(#paint2_linear_103_780)"/>
<defs>
<linearGradient id="paint0_linear_103_780" x1="6" y1="10" x2="6" y2="1.05567e-06" gradientUnits="userSpaceOnUse">
<stop/>
<stop offset="0.354167"/>
<stop offset="0.65625" stop-color="#820000"/>
<stop offset="1" stop-color="#920000"/>
</linearGradient>
<linearGradient id="paint1_linear_103_780" x1="6" y1="10" x2="6" y2="1.05567e-06" gradientUnits="userSpaceOnUse">
<stop/>
<stop offset="0.354167"/>
<stop offset="0.65625" stop-color="#820000"/>
<stop offset="1" stop-color="#920000"/>
</linearGradient>
<linearGradient id="paint2_linear_103_780" x1="6" y1="10" x2="6" y2="1.05567e-06" gradientUnits="userSpaceOnUse">
<stop/>
<stop offset="0.354167"/>
<stop offset="0.65625" stop-color="#820000"/>
<stop offset="1" stop-color="#920000"/>
</linearGradient>
</defs>
</svg>
